<svg width="263" height="88" viewBox="0 0 263 88" fill="none" xmlns="http://www.w3.org/2000/svg">
<path d="M4.79421 68.5V22.42H32.5382V30.132H12.5062V41.62H28.6982V49.3H12.5062V68.5H4.79421ZM52.6207 69.46C49.1647 69.46 46.146 68.6813 43.5647 67.124C40.9834 65.5667 38.978 63.4227 37.5487 60.692C36.1407 57.94 35.4367 54.7827 35.4367 51.22C35.4367 47.5933 36.162 44.4147 37.6127 41.684C39.0634 38.9533 41.0794 36.82 43.6607 35.284C46.242 33.748 49.2287 32.98 52.6207 32.98C56.098 32.98 59.1274 33.7587 61.7087 35.316C64.29 36.8733 66.2954 39.028 67.7247 41.78C69.154 44.5107 69.8687 47.6573 69.8687 51.22C69.8687 54.804 69.1434 57.972 67.6927 60.724C66.2634 63.4547 64.258 65.5987 61.6767 67.156C59.0954 68.692 56.0767 69.46 52.6207 69.46ZM52.6207 62.228C55.6927 62.228 57.9754 61.204 59.4687 59.156C60.962 57.108 61.7087 54.4627 61.7087 51.22C61.7087 47.8707 60.9514 45.204 59.4367 43.22C57.922 41.2147 55.65 40.212 52.6207 40.212C50.5514 40.212 48.8447 40.6813 47.5007 41.62C46.178 42.5373 45.1967 43.828 44.5567 45.492C43.9167 47.1347 43.5967 49.044 43.5967 51.22C43.5967 54.5693 44.354 57.2467 45.8687 59.252C47.4047 61.236 49.6554 62.228 52.6207 62.228ZM76.9192 68.5V33.94H83.7352V42.356L82.9032 41.268C83.3299 40.116 83.8952 39.0707 84.5992 38.132C85.3245 37.172 86.1885 36.3827 87.1912 35.764C88.0445 35.188 88.9832 34.74 90.0072 34.42C91.0525 34.0787 92.1192 33.876 93.2072 33.812C94.2952 33.7267 95.3512 33.7693 96.3752 33.94V41.14C95.3512 40.8413 94.1672 40.7453 92.8232 40.852C91.5005 40.9587 90.3059 41.332 89.2392 41.972C88.1725 42.548 87.2979 43.284 86.6152 44.18C85.9539 45.076 85.4632 46.1 85.1432 47.252C84.8232 48.3827 84.6632 49.6093 84.6632 50.932V68.5H76.9192ZM117.569 69.46C114.07 69.46 110.998 68.7027 108.353 67.188C105.707 65.6733 103.638 63.572 102.145 60.884C100.673 58.196 99.9367 55.1027 99.9367 51.604C99.9367 47.828 100.662 44.5533 102.113 41.78C103.563 38.9853 105.579 36.82 108.161 35.284C110.742 33.748 113.729 32.98 117.121 32.98C120.705 32.98 123.745 33.8227 126.241 35.508C128.758 37.172 130.625 39.5293 131.841 42.58C133.057 45.6307 133.515 49.2253 133.217 53.364H125.569V50.548C125.547 46.7933 124.886 44.052 123.585 42.324C122.283 40.596 120.235 39.732 117.441 39.732C114.283 39.732 111.937 40.7133 110.401 42.676C108.865 44.6173 108.097 47.4653 108.097 51.22C108.097 54.7187 108.865 57.428 110.401 59.348C111.937 61.268 114.177 62.228 117.121 62.228C119.019 62.228 120.651 61.812 122.017 60.98C123.403 60.1267 124.47 58.9 125.217 57.3L132.833 59.604C131.51 62.7187 129.462 65.14 126.689 66.868C123.937 68.596 120.897 69.46 117.569 69.46ZM105.665 53.364V47.54H129.441V53.364H105.665ZM153.701 69.46C149.434 69.46 145.967 68.5 143.301 66.58C140.634 64.66 139.013 61.9613 138.437 58.484L146.309 57.268C146.714 58.9747 147.61 60.3187 148.997 61.3C150.383 62.2813 152.133 62.772 154.245 62.772C156.101 62.772 157.53 62.4093 158.533 61.684C159.557 60.9373 160.069 59.924 160.069 58.644C160.069 57.8547 159.877 57.2253 159.493 56.756C159.13 56.2653 158.319 55.796 157.061 55.348C155.802 54.9 153.871 54.3347 151.269 53.652C148.367 52.884 146.063 52.0627 144.357 51.188C142.65 50.292 141.423 49.236 140.677 48.02C139.93 46.804 139.557 45.332 139.557 43.604C139.557 41.4493 140.122 39.572 141.253 37.972C142.383 36.372 143.962 35.1453 145.989 34.292C148.015 33.4173 150.405 32.98 153.157 32.98C155.845 32.98 158.223 33.396 160.293 34.228C162.383 35.06 164.069 36.244 165.349 37.78C166.629 39.316 167.418 41.1187 167.717 43.188L159.845 44.596C159.653 43.124 158.981 41.9613 157.829 41.108C156.698 40.2547 155.183 39.7747 153.285 39.668C151.471 39.5613 150.01 39.8387 148.901 40.5C147.791 41.14 147.237 42.0467 147.237 43.22C147.237 43.8813 147.461 44.4467 147.909 44.916C148.357 45.3853 149.253 45.8547 150.597 46.324C151.962 46.7933 153.989 47.3693 156.677 48.052C159.429 48.756 161.626 49.5667 163.269 50.484C164.933 51.38 166.127 52.4573 166.853 53.716C167.599 54.9747 167.973 56.5 167.973 58.292C167.973 61.7693 166.703 64.5 164.165 66.484C161.647 68.468 158.159 69.46 153.701 69.46ZM195.238 68.5C192.955 68.9267 190.715 69.108 188.518 69.044C186.342 69.0013 184.39 68.6067 182.662 67.86C180.934 67.092 179.622 65.8867 178.726 64.244C177.936 62.7507 177.52 61.2253 177.478 59.668C177.435 58.1107 177.414 56.3507 177.414 54.388V24.34H185.094V53.94C185.094 55.3267 185.104 56.5427 185.126 57.588C185.168 58.6333 185.392 59.4867 185.798 60.148C186.566 61.428 187.792 62.1427 189.478 62.292C191.163 62.4413 193.083 62.356 195.238 62.036V68.5ZM171.142 39.988V33.94H195.238V39.988H171.142ZM241.107 68.5V33.94H247.923V42.356L247.091 41.268C247.517 40.116 248.083 39.0707 248.787 38.132C249.512 37.172 250.376 36.3827 251.379 35.764C252.232 35.188 253.171 34.74 254.195 34.42C255.24 34.0787 256.307 33.876 257.395 33.812C258.483 33.7267 259.539 33.7693 260.563 33.94V41.14C259.539 40.8413 258.355 40.7453 257.011 40.852C255.688 40.9587 254.493 41.332 253.427 41.972C252.36 42.548 251.485 43.284 250.803 44.18C250.141 45.076 249.651 46.1 249.331 47.252C249.011 48.3827 248.851 49.6093 248.851 50.932V68.5H241.107Z" fill="#61990B"/>
<path d="M218.18 34.196L231.172 68.5H225.156L217.86 48.276C217.519 47.3373 217.156 46.292 216.772 45.14C216.388 43.988 216.047 42.8787 215.748 41.812C215.45 40.7453 215.236 39.8707 215.108 39.188H214.852C214.724 39.8707 214.49 40.7667 214.148 41.876C213.807 42.9427 213.444 44.052 213.06 45.204C212.676 46.3133 212.314 47.3373 211.972 48.276L204.676 68.5H198.66L211.716 34.196H218.18Z" fill="#61990B"/>
<path d="M218.18 34.196L218.648 34.0189L218.526 33.696H218.18V34.196ZM231.172 68.5V69H231.896L231.64 68.3229L231.172 68.5ZM225.156 68.5L224.686 68.6697L224.805 69H225.156V68.5ZM217.86 48.276L218.331 48.1063L218.33 48.1051L217.86 48.276ZM216.772 45.14L216.298 45.2981L216.772 45.14ZM215.108 39.188L215.6 39.0959L215.523 38.688H215.108V39.188ZM214.852 39.188V38.688H214.437L214.361 39.0959L214.852 39.188ZM214.148 41.876L214.625 42.0284L214.626 42.023L214.148 41.876ZM213.06 45.204L213.533 45.3676L213.535 45.3621L213.06 45.204ZM211.972 48.276L211.503 48.1051L211.502 48.1063L211.972 48.276ZM204.676 68.5V69H205.028L205.147 68.6697L204.676 68.5ZM198.66 68.5L198.193 68.3221L197.935 69H198.66V68.5ZM211.716 34.196V33.696H211.372L211.249 34.0181L211.716 34.196ZM217.713 34.3731L230.705 68.6771L231.64 68.3229L218.648 34.0189L217.713 34.3731ZM231.172 68H225.156V69H231.172V68ZM225.627 68.3303L218.331 48.1063L217.39 48.4457L224.686 68.6697L225.627 68.3303ZM218.33 48.1051C217.991 47.1715 217.63 46.1305 217.247 44.9819L216.298 45.2981C216.683 46.4535 217.047 47.5032 217.391 48.4469L218.33 48.1051ZM217.247 44.9819C216.865 43.8369 216.526 42.7353 216.23 41.6772L215.267 41.9468C215.568 43.022 215.912 44.1391 216.298 45.2981L217.247 44.9819ZM216.23 41.6772C215.933 40.6174 215.724 39.7583 215.6 39.0959L214.617 39.2801C214.749 39.983 214.966 40.8733 215.267 41.9468L216.23 41.6772ZM215.108 38.688H214.852V39.688H215.108V38.688ZM214.361 39.0959C214.238 39.7518 214.009 40.6274 213.671 41.729L214.626 42.023C214.97 40.9059 215.211 39.9895 215.344 39.2801L214.361 39.0959ZM213.672 41.7236C213.332 42.7882 212.969 43.8956 212.586 45.0459L213.535 45.3621C213.919 44.2084 214.283 43.0971 214.625 42.0284L213.672 41.7236ZM212.588 45.0404C212.205 46.1477 211.843 47.1693 211.503 48.1051L212.442 48.4469C212.785 47.5054 213.148 46.4789 213.533 45.3676L212.588 45.0404ZM211.502 48.1063L204.206 68.3303L205.147 68.6697L212.443 48.4457L211.502 48.1063ZM204.676 68H198.66V69H204.676V68ZM199.128 68.6779L212.184 34.3739L211.249 34.0181L198.193 68.3221L199.128 68.6779ZM211.716 34.696H218.18V33.696H211.716V34.696Z" fill="#61990B"/>
</svg>
