{
	"asset":{
		"generator":"Khronos glTF Blender I/O v3.6.27",
		"version":"2.0"
	},
	"scene":0,
	"scenes":[
		{
			"name":"Scene",
			"nodes":[
				0,
				1
			]
		}
	],
	"nodes":[
		{
			"mesh":0,
			"name":"Body_low",
			"scale":[
				0.5,
				0.5,
				0.5
			],
			"translation":[
				0,
				0.7483590245246887,
				0
			]
		},
		{
			"mesh":1,
			"name":"BezierCircle",
			"rotation":[
				0.7071068286895752,
				0,
				0,
				0.7071068286895752
			],
			"scale":[
				5,
				2,
				5
			],
			"translation":[
				0,
				1.209999918937683,
				1.2082860469818115
			]
		}
	],
	"materials":[
		{
			"doubleSided":true,
			"name":"head",
			"pbrMetallicRoughness":{
				"metallicFactor":0,
				"roughnessFactor":0.5
			}
		}
	],
	"meshes":[
		{
			"name":"body_low",
			"primitives":[
				{
					"attributes":{
						"POSITION":0,
						"NORMAL":1,
						"TEXCOORD_0":2
					},
					"indices":3,
					"material":0
				}
			]
		},
		{
			"name":"BezierCircle.001",
			"primitives":[
				{
					"attributes":{
						"POSITION":4,
						"NORMAL":5,
						"TEXCOORD_0":6
					},
					"indices":7
				}
			]
		}
	],
	"accessors":[
		{
			"bufferView":0,
			"componentType":5126,
			"count":632,
			"max":[
				6.226481914520264,
				3.3068084716796875,
				2.0335350036621094
			],
			"min":[
				-6.226480960845947,
				-2.1516265869140625,
				-2.4705581665039062
			],
			"type":"VEC3"
		},
		{
			"bufferView":1,
			"componentType":5126,
			"count":632,
			"type":"VEC3"
		},
		{
			"bufferView":2,
			"componentType":5126,
			"count":632,
			"type":"VEC2"
		},
		{
			"bufferView":3,
			"componentType":5123,
			"count":3657,
			"type":"SCALAR"
		},
		{
			"bufferView":4,
			"componentType":5126,
			"count":1127,
			"max":[
				1.0950000286102295,
				-0.06766623258590698,
				1.0950000286102295
			],
			"min":[
				-1.0950000286102295,
				-1.2576665878295898,
				-1.0950000286102295
			],
			"type":"VEC3"
		},
		{
			"bufferView":5,
			"componentType":5126,
			"count":1127,
			"type":"VEC3"
		},
		{
			"bufferView":6,
			"componentType":5126,
			"count":1127,
			"type":"VEC2"
		},
		{
			"bufferView":7,
			"componentType":5123,
			"count":6336,
			"type":"SCALAR"
		}
	],
	"bufferViews":[
		{
			"buffer":0,
			"byteLength":7584,
			"byteOffset":0,
			"target":34962
		},
		{
			"buffer":0,
			"byteLength":7584,
			"byteOffset":7584,
			"target":34962
		},
		{
			"buffer":0,
			"byteLength":5056,
			"byteOffset":15168,
			"target":34962
		},
		{
			"buffer":0,
			"byteLength":7314,
			"byteOffset":20224,
			"target":34963
		},
		{
			"buffer":0,
			"byteLength":13524,
			"byteOffset":27540,
			"target":34962
		},
		{
			"buffer":0,
			"byteLength":13524,
			"byteOffset":41064,
			"target":34962
		},
		{
			"buffer":0,
			"byteLength":9016,
			"byteOffset":54588,
			"target":34962
		},
		{
			"buffer":0,
			"byteLength":12672,
			"byteOffset":63604,
			"target":34963
		}
	],
	"buffers":[
		{
			"byteLength":76276,
			"uri":"data:application/octet-stream;base64,"
		}
	]
}
